<?xml version="1.0"?>
<svg width="300" height="300" xmlns="http://www.w3.org/2000/svg" xmlns:svg="http://www.w3.org/2000/svg">
 <g class="layer">
  <title>Layer 1</title>
  <path d="m193.44,265.81c0,0 -27.77,-1.95 -42.47,-9.4c-14.71,-7.45 -21.57,-16.95 -21.57,-16.95c0,0 7.72,8.19 18.55,14.4c6.6,3.79 14.36,6.83 22.23,6.83c0,0 -12.15,-6.51 -21.27,-1.86c0,0 6.57,-4.28 17.94,-1.02c11.37,3.26 17.06,1.39 17.06,1.39c0,0 -19.22,-0.09 -27.55,-5.3c-8.34,-5.22 -10.39,-8.2 -10.39,-8.2c0,0 8.62,8.48 15.29,9.5c6.67,1.02 18.14,-0.19 18.14,-0.19c0,0 -11.87,0.28 -15.59,-1.3c-3.73,-1.58 -18.43,-4.75 -21.08,1.86c0,0 2.94,-6.98 16.37,-4.93c13.43,2.04 14.71,1.39 14.71,1.39c0,0 -23.82,-8.75 -37.16,-3.82c-13.33,4.94 -12.45,9.13 -12.45,9.13c0,0 0.88,-14.53 33.43,-11.92c0,0 -15.19,-2.14 -20.78,-6.43c-5.59,-4.28 -5.98,-7.08 -5.98,-7.08c0,0 6.37,9.23 14.21,9.32c7.85,0.09 10.1,-0.56 10.1,-0.56c0,0 -15.29,-3.35 -22.55,-2.61c-7.25,0.75 -19.02,3.17 -25.19,-7.45c0,0 5.78,10.15 21.57,6.61c15.78,-3.54 25.68,0.38 25.68,0.38c0,0 -23.92,-4.38 -28.82,-8.76c-4.9,-4.38 -5.49,-11.92 -5.49,-11.92c0,0 2.06,12.67 12.15,13.88c10.1,1.21 25.4,0.93 29.42,5.31c0,0 -10.1,-7.08 -20.59,-6.15c-10.49,0.93 -26.67,13.78 -34.9,10.43c-8.24,-3.35 -11.96,-0.56 -11.96,-0.56c0,0 3.43,-3.26 9.31,-1.77c5.88,1.49 7.16,3.73 17.25,-2.89c10.1,-6.61 27.26,-14.8 38.14,-7.73c0,0 -50.85,-13.38 -56.34,-40.57c0,0 4.84,18.13 29.67,26.2c24.84,8.07 26.28,7.45 26.28,7.45c0,0 -38.3,-3.85 -56.21,-36.63c0,0 15.56,25.46 39.74,28.81c0,0 -20.39,-6.71 -36.21,-27.2c-15.82,-20.49 -16.47,-27.32 -16.47,-27.32c0,0 19.22,32.79 55.56,38.62c0,0 -28.47,-7.73 -48.86,-32.41c-20.39,-24.68 -14.02,-29.53 -14.02,-29.53c0,0 -4.41,-8.84 -1.08,-10.8c0,0 -6.57,-7.08 -4.7,-12.85c0,0 4.7,21.88 28.72,36.23c24.02,14.34 26.08,16.11 26.08,16.11c0,0 -24.9,-16.21 -32.75,-24.03c-7.84,-7.82 -16.66,-13.88 -21.76,-30.64c0,0 4.9,16.58 20.39,27.94c15.49,11.36 18.53,11.18 18.53,11.18c0,0 -31.76,-15.46 -39.31,-41.08c0,0 4.41,18.91 39.41,36.98c0,0 -35.1,-19.65 -39.41,-40.61c0,0 -0.79,-3.07 0.68,-4.56c0,0 -1.76,-4.01 -1.17,-9.04c0.59,-5.03 1.27,-10.43 1.27,-10.43c0,0 -1.57,21.24 20.2,37.63c0,0 -25.69,-29.25 -16.54,-53.34c0,0 -1.96,13.29 4.19,19.37c0,0 -5.23,-10.68 -2.75,-23.22c0,0 -0.65,13.29 5.88,25.33c6.54,12.05 27.45,35.4 27.45,35.4c0,0 -24.57,-27.32 -28.49,-42.72c-3.92,-15.4 -1.7,-25.46 -1.7,-25.46c0,0 -2.22,14.4 7.32,28.81c9.54,14.41 12.81,16.02 12.81,16.02c0,0 -26.28,-25.96 -16.34,-54.77c0,0 -0.66,29.19 10.19,41.73c10.85,12.54 14.12,12.92 14.12,12.92c0,0 -22.35,-16.77 -21.57,-40.24c0.79,-23.47 4.97,-24.71 4.97,-24.71c0,0 -9.28,19.87 5.62,38.99c14.9,19.13 11.9,15.52 11.9,15.52c0,0 -21.18,-26.07 -17,-46.44c4.19,-20.37 12.16,-20.12 12.16,-20.12c0,0 -8.76,5.46 -8.37,18.01c0.4,12.54 12.95,36.88 12.95,36.88c0,0 -13.99,-33.4 -10.2,-43.71c3.79,-10.31 11.76,-13.41 11.76,-13.41c0,0 -15.55,8.44 -6.53,31.04c0,0 -5.62,-21.48 9.41,-31.54c0,0 -10.72,9.69 -6.28,27.69c0,0 1.7,-10.1 12.94,-29.68c0,0 -9.14,6.83 -9.27,20.62c0,0 1.96,-13.91 12.8,-21.73c0,0 -8.23,11.92 -7.71,29.05c0,0 6.15,-16.88 9.15,-29.3c0,0 0.53,6.7 -1.7,15.02c-2.22,8.32 -3.26,9.07 -3.26,9.07c0,0 7.97,-11.18 8.36,-22.11c0,0 0.39,10.68 -3,19.63c0,0 6.47,-4.95 7.28,-15.9c0.02,-0.17 0.03,-0.33 0.04,-0.5c0,0 1.82,16.02 -4.84,29.56c-6.67,13.54 -9.81,14.78 -9.81,14.78c0,0 14.78,-13.29 17,-31.67c0,0 0.26,10.31 -3.66,19.25c-3.92,8.94 -8.11,15.77 -8.11,15.77c0,0 19.74,-17.01 16.47,-47.56c0,0 3.79,17.01 0.4,29.93c-3.4,12.91 -20.14,32.78 -20.14,32.78c0,0 26.02,-21.86 27.19,-56.5c0,0 3.14,20.49 -8.82,39.11c0,0 17.65,-19 17.26,-37.07c0,0 3.92,9.13 0.58,21.61c-3.33,12.48 -19.21,41.73 -35.68,48.81c0,0 44.7,-22.92 41.76,-62.22c0,0 4.9,17.88 -1.17,35.21c-6.08,17.32 -29.22,43.77 -29.22,43.77c0,0 33.14,-29.06 38.04,-60.72c0,0 1.57,-9.69 -0.39,-15.47c0,0 8.04,3.36 8.62,17.7c0.59,14.34 -7.25,33.72 -12.74,47.32c-5.49,13.59 -17.25,31.66 -17.25,31.66c0,0 38.23,-55.51 32.74,-82.7c0,0 9.8,11.73 8.63,27.01c-1.18,15.27 -9.41,57.74 -32.35,76.93c0,0 24.7,-18.63 31.56,-52.53c0,0 3.53,-18.07 2.94,-27.94c0,0 4.91,20.86 3.14,36.51c-1.76,15.64 -20.19,50.67 -20.19,50.67c0,0 20.19,-29.25 21.56,-47.51c0,0 2.16,10.99 0.59,21.05c-1.57,10.06 -10.59,28.88 -18.23,39.87c0,0 16.08,-21.98 19.41,-31.67c3.33,-9.69 2.74,-15.28 2.74,-15.28c0,0 3.93,30.18 -2.35,44.34c-6.27,14.16 -26.08,35.21 -27.45,45.08c0,0 9.22,-22.91 29.22,-26.45c20,-3.54 31.37,1.86 31.37,1.86c0,0 -30.39,-9.31 -46.67,8.2c0,0 -8.23,9.5 -8.43,18.06c0,0 21.18,-14.15 24.51,-33.53c3.33,-19.37 18.82,-22.35 18.82,-22.35c0,0 -17.25,6.15 -17.06,22.91c0.2,16.77 -19.6,36.51 -24.31,35.96c0,0 16.08,-4.29 21.77,-17.14c0,0 -3.73,13.04 -11.77,20.58c-8.04,7.55 -5.39,10.81 -5.39,10.81c0,0 2.74,-8.11 10.78,-14.91c8.04,-6.8 18.63,-18.53 18.73,-26.45c0.1,-7.91 8.82,-15.83 8.82,-15.83c0,0 -6.86,8.29 -7.16,14.25c-0.29,5.96 0.69,15.27 -10.78,23.1c-11.47,7.82 -16.27,21.88 -16.08,28.03c0,0 8.01,-21.95 31.54,-26.29c0,0 -22.49,4.22 -30.46,28.31c0,0 14.9,-24.09 34.77,-30.42c0,0 -21.17,8.56 -31.37,29.55c0,0 6.01,-14.9 24.84,-15.52c0,0 -15.69,1.98 -22.09,16.02c0,0 2.87,-5.96 13.59,-8.07c10.72,-2.12 19.74,-9.44 17.52,-16.4c0,0 2.74,9.69 -11.25,16.15c-13.98,6.46 -19.86,21.92 -19.86,21.92c0,0 11.39,10.25 20.6,18.88c-0.73,4.83 -3.24,6.16 -5.57,6.68c-0.42,0.09 -5.51,-5.07 -10.62,-10.31c-5.12,-5.24 -10.28,-10.55 -10.83,-10.76z" fill="red" id="svg_3" stroke="black" stroke-width="5"/>
  <path d="m250.5,240.5" fill="#fff" id="svg_4" opacity="NaN" stroke="#000"/>
 </g>
</svg>